<svg xmlns="http://www.w3.org/2000/svg" viewBox="0 0 48 48" fill="none" aria-hidden="true">
  <path d="M24 10c-5-3-11-4-18-3v30c7-1 13 0 18 4 5-4 11-5 18-4V7c-7-1-13 0-18 3Z" stroke="currentColor" stroke-width="3" stroke-linejoin="round"/>
  <path d="M24 10v31M11 15c3-.2 6 .2 9 1.5M28 16.5c3-1.3 6-1.7 9-1.5M11 22c3-.2 6 .2 9 1.5M28 23.5c3-1.3 6-1.7 9-1.5" stroke="currentColor" stroke-width="2" stroke-linecap="round"/>
  <path d="m20 4 1.2 2.8L24 8l-2.8 1.2L20 12l-1.2-2.8L16 8l2.8-1.2L20 4Z" fill="#72d6af"/>
</svg>
